HIERARCHY
ROOT Hips
{
	OFFSET 0.000000 0.000000 0.000000 
	CHANNELS 6 Xposition Yposition Zposition Zrotation Yrotation Xrotation
	JOINT LeftUpLeg
	{
		OFFSET 1.363060 -1.794630 0.839290 
		CHANNELS 3 Zrotation Yrotation Xrotation
		JOINT LeftLeg
		{
			OFFSET 2.448110 -6.726130 0.000000 
			CHANNELS 3 Zrotation Yrotation Xrotation
			JOINT LeftFoot
			{
				OFFSET 2.562200 -7.039590 0.000000 
				CHANNELS 3 Zrotation Yrotation Xrotation
				JOINT LeftToeBase
				{
					OFFSET 0.157640 -0.433110 2.322550 
					CHANNELS 3 Zrotation Yrotation Xrotation
					End Site
					{
						OFFSET 0.000000 0.000000 0.000000 
					}
				}
			}
		}
	}
	JOINT RightUpLeg
	{
		OFFSET -1.305520 -1.794630 0.839290 
		CHANNELS 3 Zrotation Yrotation Xrotation
		JOINT RightLeg
		{
			OFFSET -2.542530 -6.985550 0.000000 
			CHANNELS 3 Zrotation Yrotation Xrotation
			JOINT RightFoot
			{
				OFFSET -2.568260 -7.056230 0.000000 
				CHANNELS 3 Zrotation Yrotation Xrotation
				JOINT RightToeBase
				{
					OFFSET -0.164730 -0.452590 2.363150 
					CHANNELS 3 Zrotation Yrotation Xrotation
					End Site
					{
						OFFSET 0.000000 0.000000 0.000000 
					}
				}
			}
		}
	}
	JOINT Spine
	{
		OFFSET 0.028270 2.035590 -0.193380 
		CHANNELS 3 Zrotation Yrotation Xrotation
		JOINT Spine1
		{
			OFFSET 0.056720 2.048850 -0.042750 
			CHANNELS 3 Zrotation Yrotation Xrotation
			JOINT Neck1
			{
				OFFSET -0.054170 1.746240 0.172020 
				CHANNELS 3 Zrotation Yrotation Xrotation
				JOINT Head
				{
					OFFSET 0.104070 1.761360 -0.123970 
					CHANNELS 3 Zrotation Yrotation Xrotation
					End Site
					{
						OFFSET 0.000000 0.000000 0.000000 
					}
				}
			}
			JOINT LeftArm
			{
				OFFSET 3.362410 1.200890 -0.311210 
				CHANNELS 3 Zrotation Yrotation Xrotation
				JOINT LeftForeArm
				{
					OFFSET 4.983000 -0.000000 -0.000000 
					CHANNELS 3 Zrotation Yrotation Xrotation
					JOINT LeftHand
					{
						OFFSET 3.483560 -0.000000 -0.000000 
						CHANNELS 3 Zrotation Yrotation Xrotation
						JOINT LeftHandIndex1
						{
							OFFSET 0.715260 -0.000000 -0.000000 
							CHANNELS 3 Zrotation Yrotation Xrotation
							End Site
							{
								OFFSET 0.000000 0.000000 0.000000 
							}
						}
					}
				}
			}
			JOINT RightArm
			{
				OFFSET -3.136600 1.374050 -0.404650 
				CHANNELS 3 Zrotation Yrotation Xrotation
				JOINT RightForeArm
				{
					OFFSET -5.241900 -0.000000 -0.000000 
					CHANNELS 3 Zrotation Yrotation Xrotation
					JOINT RightHand
					{
						OFFSET -3.444170 -0.000000 -0.000000 
						CHANNELS 3 Zrotation Yrotation Xrotation
						JOINT RightHandIndex1
						{
							OFFSET -0.622530 -0.000000 -0.000000 
							CHANNELS 3 Zrotation Yrotation Xrotation
							End Site
							{
								OFFSET 0.000000 0.000000 0.000000 
							}
						}
					}
				}
			}
		}
	}
}
MOTION
Frames: 6
Frame Time: 0.041667
0.680932 17.073302 9.446880 -4.341451 -0.702075 6.074605 -10.286160 -6.246609 -44.757110 21.141285 20.384823 94.228684 0.936599 -11.571427 11.826695 0.043500 -1.345400 -3.699600 32.633772 12.621253 -1.953430 -4.737869 -10.027222 39.624377 2.328549 -10.325413 -11.213956 -0.777300 5.629200 -15.712300 4.432346 2.762078 2.344356 -2.143110 0.912264 -13.254088 7.695393 -8.393016 8.094860 0.512400 -3.628100 6.782500 -76.227133 30.740107 50.853751 127.210634 -55.449192 -91.680934 0.074713 -0.163998 -26.814726 -7.125000 0.000000 0.000000 78.024529 -2.093332 42.821059 -142.143206 48.558601 -102.771299 -0.118667 -0.733542 -29.146644 7.125000 0.000000 0.000000 
0.715620 17.169613 9.965406 -4.300131 -0.699432 6.210031 -10.801274 -6.587465 -45.673223 20.047950 20.514632 90.918739 0.943116 -10.743040 10.276334 0.141800 -2.426700 -6.686600 32.223904 11.972481 -0.187279 -4.442665 -9.663265 38.214077 2.407113 -9.791575 -7.894271 -0.856100 5.900700 -16.496700 4.226248 3.144524 1.965748 -2.514308 1.052299 -13.381379 7.727847 -8.746017 8.238602 0.494100 -3.792800 6.802300 -76.114940 32.324367 50.544491 127.664944 -55.289327 -92.031238 0.073838 -0.161840 -26.475327 -7.125000 0.000000 0.000000 78.109338 -1.510716 42.131495 -142.929750 48.029536 -103.393156 -0.134987 -0.756669 -30.679859 7.125000 0.000000 0.000000 
0.771975 17.285802 10.522696 -3.884835 -0.431577 6.584286 -11.921014 -7.410454 -46.066774 18.732047 20.476002 87.036660 0.889758 -9.121921 9.455287 0.266800 -3.322700 -9.178500 31.042470 10.834112 1.065765 -4.109477 -9.289627 36.684527 2.342450 -8.956624 -4.137759 -0.888500 6.008200 -16.808400 3.784328 3.306768 1.647870 -2.926107 1.115217 -13.007148 7.897299 -8.967945 8.178947 0.534700 -3.899200 6.743900 -76.167955 33.884183 49.911896 128.068049 -55.130474 -92.330427 0.074131 -0.158950 -26.242117 -7.125000 0.000000 0.000000 78.143736 -1.420532 42.124381 -144.021046 47.307848 -104.154474 -0.117468 -0.753974 -32.044973 7.125000 0.000000 0.000000 
0.795928 17.387778 11.059808 -3.735441 0.415934 6.077292 -12.528108 -8.275467 -45.610638 17.348704 20.297637 82.972594 0.838579 -7.841814 8.629139 0.409300 -4.106800 -11.377300 30.510551 9.270955 2.915645 -3.819099 -8.892477 35.208848 2.243011 -8.230985 0.058507 -0.696900 5.336500 -14.870700 3.687227 3.210041 1.625560 -3.023380 1.066165 -13.175471 7.844244 -9.138647 8.035652 0.512500 -3.999800 6.660900 -76.477818 35.258745 49.057750 128.118364 -55.115996 -92.355222 0.072968 -0.158827 -25.906416 -7.125000 0.000000 0.000000 77.995039 -1.292191 42.403024 -145.026745 46.627888 -104.831121 -0.098827 -0.744141 -31.839929 7.125000 0.000000 0.000000 
0.837772 17.501184 11.628030 -3.571112 0.650373 6.247873 -13.222801 -8.664873 -45.492110 15.851982 20.063399 78.587806 0.770833 -6.543926 7.566131 0.438400 -4.248500 -11.776900 29.630018 8.269154 4.267657 -3.489282 -8.470239 33.555021 2.041146 -7.496385 5.249850 -0.523800 4.638200 -12.879400 3.582073 3.340046 1.535157 -3.147398 1.145582 -12.750628 7.765973 -9.252551 8.087283 0.486300 -4.060700 6.692200 -77.169749 36.427756 47.971826 127.845623 -55.204401 -92.147817 0.074667 -0.163441 -25.425606 -7.125000 0.000000 0.000000 77.518119 -0.548616 42.904532 -145.785750 46.120585 -105.299753 -0.074322 -0.712170 -30.242052 7.125000 0.000000 0.000000 
0.886474 17.594910 12.188699 -3.291315 0.981192 6.449017 -13.993095 -9.168690 -45.233652 14.307097 19.692805 74.067395 0.662794 -5.143132 7.073241 0.436800 -4.241200 -11.756300 28.537634 7.107101 5.433606 -3.171011 -8.041880 31.811281 1.818354 -7.296242 11.170323 -0.337300 3.732200 -10.324500 3.314679 3.408416 1.526961 -3.357950 1.204459 -12.146562 7.741830 -9.286494 8.070943 0.473100 -4.081100 6.689400 -77.728547 37.497416 46.909676 127.667037 -55.255112 -92.006534 0.075757 -0.166404 -25.629723 -7.125000 0.000000 0.000000 77.138425 0.005342 44.588931 -147.170454 45.160381 -106.111335 0.057965 -0.628564 -31.299737 7.125000 0.000000 0.000000 
